<mxfile host="app.diagrams.net" agent="Mozilla/5.0 (X11; Linux x86_64; rv:139.0) Gecko/20100101 Firefox/139.0" version="27.1.1">
  <diagram name="Page-1" id="15Wo2N5bEZusL9GLBTuU">
    <mxGraphModel dx="1950" dy="1140" grid="0" gridSize="10" guides="0" tooltips="0" connect="1" arrows="1" fold="1" page="0" pageScale="1" pageWidth="827" pageHeight="1169" math="0" shadow="0">
      <root>
        <mxCell id="0" />
        <mxCell id="1" parent="0" />
        <mxCell id="rXXwPsu-Z3OQYFj2nWae-1" value="Main" style="swimlane;fontStyle=0;childLayout=stackLayout;horizontal=1;startSize=30;horizontalStack=0;resizeParent=1;resizeParentMax=0;resizeLast=0;collapsible=1;marginBottom=0;whiteSpace=wrap;html=1;labelBackgroundColor=none;rounded=0;" parent="1" vertex="1">
          <mxGeometry x="650" y="435" width="140" height="60" as="geometry" />
        </mxCell>
        <mxCell id="rXXwPsu-Z3OQYFj2nWae-2" value="main" style="text;strokeColor=none;fillColor=none;align=left;verticalAlign=middle;spacingLeft=4;spacingRight=4;overflow=hidden;points=[[0,0.5],[1,0.5]];portConstraint=eastwest;rotatable=0;whiteSpace=wrap;html=1;labelBackgroundColor=none;rounded=0;" parent="rXXwPsu-Z3OQYFj2nWae-1" vertex="1">
          <mxGeometry y="30" width="140" height="30" as="geometry" />
        </mxCell>
        <mxCell id="rXXwPsu-Z3OQYFj2nWae-3" value="&lt;div&gt;ElementDonjon (abstract ou interface)&lt;/div&gt;" style="swimlane;fontStyle=0;childLayout=stackLayout;horizontal=1;startSize=30;horizontalStack=0;resizeParent=1;resizeParentMax=0;resizeLast=0;collapsible=1;marginBottom=0;whiteSpace=wrap;html=1;labelBackgroundColor=none;rounded=0;" parent="1" vertex="1">
          <mxGeometry x="60" y="420" width="210" height="140" as="geometry" />
        </mxCell>
        <mxCell id="78W6d95duRkhlmA3JdRr-6" value="+getElementFromPosition(posx: int, posy: int) : ElementDonjon" style="text;strokeColor=none;fillColor=none;align=left;verticalAlign=middle;spacingLeft=4;spacingRight=4;overflow=hidden;points=[[0,0.5],[1,0.5]];portConstraint=eastwest;rotatable=0;whiteSpace=wrap;html=1;labelBackgroundColor=none;rounded=0;" parent="rXXwPsu-Z3OQYFj2nWae-3" vertex="1">
          <mxGeometry y="30" width="210" height="40" as="geometry" />
        </mxCell>
        <mxCell id="78W6d95duRkhlmA3JdRr-7" value="+ getGroupeFromInstance(type: Class&amp;lt;?&amp;gt;) : ElementDonjon" style="text;strokeColor=none;fillColor=none;align=left;verticalAlign=middle;spacingLeft=4;spacingRight=4;overflow=hidden;points=[[0,0.5],[1,0.5]];portConstraint=eastwest;rotatable=0;whiteSpace=wrap;html=1;labelBackgroundColor=none;rounded=0;" parent="rXXwPsu-Z3OQYFj2nWae-3" vertex="1">
          <mxGeometry y="70" width="210" height="40" as="geometry" />
        </mxCell>
        <mxCell id="78W6d95duRkhlmA3JdRr-10" value="+ touch(joueur: Joueur) : boolean" style="text;strokeColor=none;fillColor=none;align=left;verticalAlign=middle;spacingLeft=4;spacingRight=4;overflow=hidden;points=[[0,0.5],[1,0.5]];portConstraint=eastwest;rotatable=0;whiteSpace=wrap;html=1;labelBackgroundColor=none;rounded=0;" parent="rXXwPsu-Z3OQYFj2nWae-3" vertex="1">
          <mxGeometry y="110" width="210" height="30" as="geometry" />
        </mxCell>
        <mxCell id="rXXwPsu-Z3OQYFj2nWae-7" value="GroupeDonjon" style="swimlane;fontStyle=0;childLayout=stackLayout;horizontal=1;startSize=30;horizontalStack=0;resizeParent=1;resizeParentMax=0;resizeLast=0;collapsible=1;marginBottom=0;whiteSpace=wrap;html=1;labelBackgroundColor=none;rounded=0;" parent="1" vertex="1">
          <mxGeometry x="50" y="880" width="250" height="200" as="geometry" />
        </mxCell>
        <mxCell id="rXXwPsu-Z3OQYFj2nWae-8" value="+ajouter(e:ElementDonjon): void" style="text;strokeColor=none;fillColor=none;align=left;verticalAlign=middle;spacingLeft=4;spacingRight=4;overflow=hidden;points=[[0,0.5],[1,0.5]];portConstraint=eastwest;rotatable=0;whiteSpace=wrap;html=1;labelBackgroundColor=none;rounded=0;" parent="rXXwPsu-Z3OQYFj2nWae-7" vertex="1">
          <mxGeometry y="30" width="250" height="30" as="geometry" />
        </mxCell>
        <mxCell id="rXXwPsu-Z3OQYFj2nWae-9" value="+retirer(e:ElementDonjon): void" style="text;strokeColor=none;fillColor=none;align=left;verticalAlign=middle;spacingLeft=4;spacingRight=4;overflow=hidden;points=[[0,0.5],[1,0.5]];portConstraint=eastwest;rotatable=0;whiteSpace=wrap;html=1;labelBackgroundColor=none;rounded=0;" parent="rXXwPsu-Z3OQYFj2nWae-7" vertex="1">
          <mxGeometry y="60" width="250" height="30" as="geometry" />
        </mxCell>
        <mxCell id="rXXwPsu-Z3OQYFj2nWae-10" value="+getChildren(): List&amp;lt;ElementDonjon&amp;gt;" style="text;strokeColor=none;fillColor=none;align=left;verticalAlign=middle;spacingLeft=4;spacingRight=4;overflow=hidden;points=[[0,0.5],[1,0.5]];portConstraint=eastwest;rotatable=0;whiteSpace=wrap;html=1;labelBackgroundColor=none;rounded=0;" parent="rXXwPsu-Z3OQYFj2nWae-7" vertex="1">
          <mxGeometry y="90" width="250" height="30" as="geometry" />
        </mxCell>
        <mxCell id="iWDvNx1NZRqrllPwlE0m-20" value="+getElementFromPosition(x:int, y:int): ElementDonjon" style="text;strokeColor=none;fillColor=none;align=left;verticalAlign=middle;spacingLeft=4;spacingRight=4;overflow=hidden;points=[[0,0.5],[1,0.5]];portConstraint=eastwest;rotatable=0;whiteSpace=wrap;html=1;labelBackgroundColor=none;rounded=0;" parent="rXXwPsu-Z3OQYFj2nWae-7" vertex="1">
          <mxGeometry y="120" width="250" height="40" as="geometry" />
        </mxCell>
        <mxCell id="iWDvNx1NZRqrllPwlE0m-22" value="+getGroupeFromInstance(type:Class&amp;lt;?&amp;gt;): ElementDonjon" style="text;strokeColor=none;fillColor=none;align=left;verticalAlign=middle;spacingLeft=4;spacingRight=4;overflow=hidden;points=[[0,0.5],[1,0.5]];portConstraint=eastwest;rotatable=0;whiteSpace=wrap;html=1;labelBackgroundColor=none;rounded=0;" parent="rXXwPsu-Z3OQYFj2nWae-7" vertex="1">
          <mxGeometry y="160" width="250" height="40" as="geometry" />
        </mxCell>
        <mxCell id="rXXwPsu-Z3OQYFj2nWae-11" value="&lt;div&gt;Piege&lt;/div&gt;" style="swimlane;fontStyle=0;childLayout=stackLayout;horizontal=1;startSize=30;horizontalStack=0;resizeParent=1;resizeParentMax=0;resizeLast=0;collapsible=1;marginBottom=0;whiteSpace=wrap;html=1;labelBackgroundColor=none;rounded=0;" parent="1" vertex="1">
          <mxGeometry x="810" y="880" width="140" height="100" as="geometry" />
        </mxCell>
        <mxCell id="rXXwPsu-Z3OQYFj2nWae-12" value="+ Piege()" style="text;strokeColor=none;fillColor=none;align=left;verticalAlign=middle;spacingLeft=4;spacingRight=4;overflow=hidden;points=[[0,0.5],[1,0.5]];portConstraint=eastwest;rotatable=0;whiteSpace=wrap;html=1;labelBackgroundColor=none;rounded=0;" parent="rXXwPsu-Z3OQYFj2nWae-11" vertex="1">
          <mxGeometry y="30" width="140" height="30" as="geometry" />
        </mxCell>
        <mxCell id="rXXwPsu-Z3OQYFj2nWae-13" value="+ touch(joueur: Joueur) : boolean" style="text;strokeColor=none;fillColor=none;align=left;verticalAlign=middle;spacingLeft=4;spacingRight=4;overflow=hidden;points=[[0,0.5],[1,0.5]];portConstraint=eastwest;rotatable=0;whiteSpace=wrap;html=1;labelBackgroundColor=none;rounded=0;" parent="rXXwPsu-Z3OQYFj2nWae-11" vertex="1">
          <mxGeometry y="60" width="140" height="40" as="geometry" />
        </mxCell>
        <mxCell id="rXXwPsu-Z3OQYFj2nWae-15" value="&lt;div&gt;Tresor&lt;/div&gt;" style="swimlane;fontStyle=0;childLayout=stackLayout;horizontal=1;startSize=30;horizontalStack=0;resizeParent=1;resizeParentMax=0;resizeLast=0;collapsible=1;marginBottom=0;whiteSpace=wrap;html=1;labelBackgroundColor=none;rounded=0;" parent="1" vertex="1">
          <mxGeometry x="490" y="880" width="140" height="110" as="geometry" />
        </mxCell>
        <mxCell id="rXXwPsu-Z3OQYFj2nWae-16" value="+Tresor(valeur_score: int)" style="text;strokeColor=none;fillColor=none;align=left;verticalAlign=middle;spacingLeft=4;spacingRight=4;overflow=hidden;points=[[0,0.5],[1,0.5]];portConstraint=eastwest;rotatable=0;whiteSpace=wrap;html=1;labelBackgroundColor=none;rounded=0;" parent="rXXwPsu-Z3OQYFj2nWae-15" vertex="1">
          <mxGeometry y="30" width="140" height="40" as="geometry" />
        </mxCell>
        <mxCell id="rXXwPsu-Z3OQYFj2nWae-18" value="+ touch(joueur: Joueur) : boolean" style="text;strokeColor=none;fillColor=none;align=left;verticalAlign=middle;spacingLeft=4;spacingRight=4;overflow=hidden;points=[[0,0.5],[1,0.5]];portConstraint=eastwest;rotatable=0;whiteSpace=wrap;html=1;labelBackgroundColor=none;rounded=0;" parent="rXXwPsu-Z3OQYFj2nWae-15" vertex="1">
          <mxGeometry y="70" width="140" height="40" as="geometry" />
        </mxCell>
        <mxCell id="rXXwPsu-Z3OQYFj2nWae-19" value="&lt;div&gt;Monstre&lt;/div&gt;" style="swimlane;fontStyle=0;childLayout=stackLayout;horizontal=1;startSize=30;horizontalStack=0;resizeParent=1;resizeParentMax=0;resizeLast=0;collapsible=1;marginBottom=0;whiteSpace=wrap;html=1;labelBackgroundColor=none;rounded=0;" parent="1" vertex="1">
          <mxGeometry x="650" y="880" width="140" height="170" as="geometry" />
        </mxCell>
        <mxCell id="rXXwPsu-Z3OQYFj2nWae-20" value="+ Monstre (x:int , : int , direction: int[]" style="text;strokeColor=none;fillColor=none;align=left;verticalAlign=middle;spacingLeft=4;spacingRight=4;overflow=hidden;points=[[0,0.5],[1,0.5]];portConstraint=eastwest;rotatable=0;whiteSpace=wrap;html=1;labelBackgroundColor=none;rounded=0;" parent="rXXwPsu-Z3OQYFj2nWae-19" vertex="1">
          <mxGeometry y="30" width="140" height="40" as="geometry" />
        </mxCell>
        <mxCell id="rXXwPsu-Z3OQYFj2nWae-21" value="+ inverseDirection() : void" style="text;strokeColor=none;fillColor=none;align=left;verticalAlign=middle;spacingLeft=4;spacingRight=4;overflow=hidden;points=[[0,0.5],[1,0.5]];portConstraint=eastwest;rotatable=0;whiteSpace=wrap;html=1;labelBackgroundColor=none;rounded=0;" parent="rXXwPsu-Z3OQYFj2nWae-19" vertex="1">
          <mxGeometry y="70" width="140" height="30" as="geometry" />
        </mxCell>
        <mxCell id="rXXwPsu-Z3OQYFj2nWae-22" value="+ touch(joueur: Joueur)&amp;nbsp;: boolean" style="text;strokeColor=none;fillColor=none;align=left;verticalAlign=middle;spacingLeft=4;spacingRight=4;overflow=hidden;points=[[0,0.5],[1,0.5]];portConstraint=eastwest;rotatable=0;whiteSpace=wrap;html=1;labelBackgroundColor=none;rounded=0;" parent="rXXwPsu-Z3OQYFj2nWae-19" vertex="1">
          <mxGeometry y="100" width="140" height="40" as="geometry" />
        </mxCell>
        <mxCell id="78W6d95duRkhlmA3JdRr-2" value="+ getDirection() : int[]" style="text;strokeColor=none;fillColor=none;align=left;verticalAlign=middle;spacingLeft=4;spacingRight=4;overflow=hidden;points=[[0,0.5],[1,0.5]];portConstraint=eastwest;rotatable=0;whiteSpace=wrap;html=1;labelBackgroundColor=none;rounded=0;" parent="rXXwPsu-Z3OQYFj2nWae-19" vertex="1">
          <mxGeometry y="140" width="140" height="30" as="geometry" />
        </mxCell>
        <mxCell id="rXXwPsu-Z3OQYFj2nWae-23" value="&lt;div&gt;GenerateurSalle&lt;/div&gt;" style="swimlane;fontStyle=0;childLayout=stackLayout;horizontal=1;startSize=30;horizontalStack=0;resizeParent=1;resizeParentMax=0;resizeLast=0;collapsible=1;marginBottom=0;whiteSpace=wrap;html=1;labelBackgroundColor=none;rounded=0;" parent="1" vertex="1">
          <mxGeometry x="870" y="65" width="380" height="200" as="geometry" />
        </mxCell>
        <mxCell id="rXXwPsu-Z3OQYFj2nWae-24" value="+getSalle() : Salle&amp;nbsp;" style="text;strokeColor=none;fillColor=none;align=left;verticalAlign=middle;spacingLeft=4;spacingRight=4;overflow=hidden;points=[[0,0.5],[1,0.5]];portConstraint=eastwest;rotatable=0;whiteSpace=wrap;html=1;labelBackgroundColor=none;rounded=0;" parent="rXXwPsu-Z3OQYFj2nWae-23" vertex="1">
          <mxGeometry y="30" width="380" height="30" as="geometry" />
        </mxCell>
        <mxCell id="rXXwPsu-Z3OQYFj2nWae-25" value="+genererSalle() : Salle" style="text;strokeColor=none;fillColor=none;align=left;verticalAlign=middle;spacingLeft=4;spacingRight=4;overflow=hidden;points=[[0,0.5],[1,0.5]];portConstraint=eastwest;rotatable=0;whiteSpace=wrap;html=1;labelBackgroundColor=none;rounded=0;" parent="rXXwPsu-Z3OQYFj2nWae-23" vertex="1">
          <mxGeometry y="60" width="380" height="30" as="geometry" />
        </mxCell>
        <mxCell id="rXXwPsu-Z3OQYFj2nWae-26" value="+destroySalle() : void" style="text;strokeColor=none;fillColor=none;align=left;verticalAlign=middle;spacingLeft=4;spacingRight=4;overflow=hidden;points=[[0,0.5],[1,0.5]];portConstraint=eastwest;rotatable=0;whiteSpace=wrap;html=1;labelBackgroundColor=none;rounded=0;" parent="rXXwPsu-Z3OQYFj2nWae-23" vertex="1">
          <mxGeometry y="90" width="380" height="30" as="geometry" />
        </mxCell>
        <mxCell id="iWDvNx1NZRqrllPwlE0m-28" value="&lt;div&gt;-forcePlace(elem: Entite,&lt;span style=&quot;background-color: transparent; color: light-dark(rgb(0, 0, 0), rgb(255, 255, 255));&quot;&gt;map: char[][])&lt;/span&gt;&lt;/div&gt;" style="text;strokeColor=none;fillColor=none;align=left;verticalAlign=middle;spacingLeft=4;spacingRight=4;overflow=hidden;points=[[0,0.5],[1,0.5]];portConstraint=eastwest;rotatable=0;whiteSpace=wrap;html=1;labelBackgroundColor=none;rounded=0;" parent="rXXwPsu-Z3OQYFj2nWae-23" vertex="1">
          <mxGeometry y="120" width="380" height="30" as="geometry" />
        </mxCell>
        <mxCell id="iWDvNx1NZRqrllPwlE0m-29" value="&lt;div&gt;-positionner( elem: ElementDonjon, composant: GroupeDonjon,&lt;/div&gt;&lt;div&gt;laSalle: Salle, longueurSalle: int, largeurSalle: int, centrerX: int, centrerY: int)&lt;/div&gt;" style="text;strokeColor=none;fillColor=none;align=left;verticalAlign=middle;spacingLeft=4;spacingRight=4;overflow=hidden;points=[[0,0.5],[1,0.5]];portConstraint=eastwest;rotatable=0;whiteSpace=wrap;html=1;labelBackgroundColor=none;rounded=0;" parent="rXXwPsu-Z3OQYFj2nWae-23" vertex="1">
          <mxGeometry y="150" width="380" height="50" as="geometry" />
        </mxCell>
        <mxCell id="rXXwPsu-Z3OQYFj2nWae-27" value="&lt;div&gt;Salle&lt;/div&gt;" style="swimlane;fontStyle=0;childLayout=stackLayout;horizontal=1;startSize=30;horizontalStack=0;resizeParent=1;resizeParentMax=0;resizeLast=0;collapsible=1;marginBottom=0;whiteSpace=wrap;html=1;labelBackgroundColor=none;rounded=0;" parent="1" vertex="1">
          <mxGeometry x="911" y="435" width="330" height="330" as="geometry" />
        </mxCell>
        <mxCell id="rXXwPsu-Z3OQYFj2nWae-28" value="+ afficherSalle()" style="text;strokeColor=none;fillColor=none;align=left;verticalAlign=middle;spacingLeft=4;spacingRight=4;overflow=hidden;points=[[0,0.5],[1,0.5]];portConstraint=eastwest;rotatable=0;whiteSpace=wrap;html=1;labelBackgroundColor=none;rounded=0;" parent="rXXwPsu-Z3OQYFj2nWae-27" vertex="1">
          <mxGeometry y="30" width="330" height="30" as="geometry" />
        </mxCell>
        <mxCell id="rXXwPsu-Z3OQYFj2nWae-29" value="+setPositionJoueur(x:int, y:int, bloquant:char) : boolean" style="text;strokeColor=none;fillColor=none;align=left;verticalAlign=middle;spacingLeft=4;spacingRight=4;overflow=hidden;points=[[0,0.5],[1,0.5]];portConstraint=eastwest;rotatable=0;whiteSpace=wrap;html=1;labelBackgroundColor=none;rounded=0;" parent="rXXwPsu-Z3OQYFj2nWae-27" vertex="1">
          <mxGeometry y="60" width="330" height="60" as="geometry" />
        </mxCell>
        <mxCell id="rXXwPsu-Z3OQYFj2nWae-30" value="+ deplacerJoueur(dir:String) : boolean&amp;nbsp;" style="text;strokeColor=none;fillColor=none;align=left;verticalAlign=middle;spacingLeft=4;spacingRight=4;overflow=hidden;points=[[0,0.5],[1,0.5]];portConstraint=eastwest;rotatable=0;whiteSpace=wrap;html=1;labelBackgroundColor=none;rounded=0;" parent="rXXwPsu-Z3OQYFj2nWae-27" vertex="1">
          <mxGeometry y="120" width="330" height="30" as="geometry" />
        </mxCell>
        <mxCell id="iWDvNx1NZRqrllPwlE0m-14" value="+ setPositionElem(elem:ElementDonjon, x:int, y:int, bloquant:char) : boolean" style="text;strokeColor=none;fillColor=none;align=left;verticalAlign=middle;spacingLeft=4;spacingRight=4;overflow=hidden;points=[[0,0.5],[1,0.5]];portConstraint=eastwest;rotatable=0;whiteSpace=wrap;html=1;labelBackgroundColor=none;rounded=0;" parent="rXXwPsu-Z3OQYFj2nWae-27" vertex="1">
          <mxGeometry y="150" width="330" height="30" as="geometry" />
        </mxCell>
        <mxCell id="iWDvNx1NZRqrllPwlE0m-15" value="+ checkPositionLibre(x:int, y:int) : char" style="text;strokeColor=none;fillColor=none;align=left;verticalAlign=middle;spacingLeft=4;spacingRight=4;overflow=hidden;points=[[0,0.5],[1,0.5]];portConstraint=eastwest;rotatable=0;whiteSpace=wrap;html=1;labelBackgroundColor=none;rounded=0;" parent="rXXwPsu-Z3OQYFj2nWae-27" vertex="1">
          <mxGeometry y="180" width="330" height="30" as="geometry" />
        </mxCell>
        <mxCell id="iWDvNx1NZRqrllPwlE0m-16" value="- deplacerElem(monstre:Monstre) : boolean" style="text;strokeColor=none;fillColor=none;align=left;verticalAlign=middle;spacingLeft=4;spacingRight=4;overflow=hidden;points=[[0,0.5],[1,0.5]];portConstraint=eastwest;rotatable=0;whiteSpace=wrap;html=1;labelBackgroundColor=none;rounded=0;" parent="rXXwPsu-Z3OQYFj2nWae-27" vertex="1">
          <mxGeometry y="210" width="330" height="30" as="geometry" />
        </mxCell>
        <mxCell id="iWDvNx1NZRqrllPwlE0m-17" value="- deplacerTousMonstres()" style="text;strokeColor=none;fillColor=none;align=left;verticalAlign=middle;spacingLeft=4;spacingRight=4;overflow=hidden;points=[[0,0.5],[1,0.5]];portConstraint=eastwest;rotatable=0;whiteSpace=wrap;html=1;labelBackgroundColor=none;rounded=0;" parent="rXXwPsu-Z3OQYFj2nWae-27" vertex="1">
          <mxGeometry y="240" width="330" height="30" as="geometry" />
        </mxCell>
        <mxCell id="iWDvNx1NZRqrllPwlE0m-18" value="- effacerEntite(entite:Entite)" style="text;strokeColor=none;fillColor=none;align=left;verticalAlign=middle;spacingLeft=4;spacingRight=4;overflow=hidden;points=[[0,0.5],[1,0.5]];portConstraint=eastwest;rotatable=0;whiteSpace=wrap;html=1;labelBackgroundColor=none;rounded=0;" parent="rXXwPsu-Z3OQYFj2nWae-27" vertex="1">
          <mxGeometry y="270" width="330" height="30" as="geometry" />
        </mxCell>
        <mxCell id="iWDvNx1NZRqrllPwlE0m-19" value="- destroyElement(elem:ElementDonjon)" style="text;strokeColor=none;fillColor=none;align=left;verticalAlign=middle;spacingLeft=4;spacingRight=4;overflow=hidden;points=[[0,0.5],[1,0.5]];portConstraint=eastwest;rotatable=0;whiteSpace=wrap;html=1;labelBackgroundColor=none;rounded=0;" parent="rXXwPsu-Z3OQYFj2nWae-27" vertex="1">
          <mxGeometry y="300" width="330" height="30" as="geometry" />
        </mxCell>
        <mxCell id="rXXwPsu-Z3OQYFj2nWae-31" value="&lt;div&gt;View&lt;/div&gt;" style="swimlane;fontStyle=0;childLayout=stackLayout;horizontal=1;startSize=30;horizontalStack=0;resizeParent=1;resizeParentMax=0;resizeLast=0;collapsible=1;marginBottom=0;whiteSpace=wrap;html=1;labelBackgroundColor=none;rounded=0;" parent="1" vertex="1">
          <mxGeometry x="640" y="540" width="160" height="190" as="geometry" />
        </mxCell>
        <mxCell id="rXXwPsu-Z3OQYFj2nWae-32" value="+ clearScreen() : void" style="text;strokeColor=none;fillColor=none;align=left;verticalAlign=middle;spacingLeft=4;spacingRight=4;overflow=hidden;points=[[0,0.5],[1,0.5]];portConstraint=eastwest;rotatable=0;whiteSpace=wrap;html=1;labelBackgroundColor=none;rounded=0;" parent="rXXwPsu-Z3OQYFj2nWae-31" vertex="1">
          <mxGeometry y="30" width="160" height="30" as="geometry" />
        </mxCell>
        <mxCell id="rXXwPsu-Z3OQYFj2nWae-33" value="+ menuPrincipal() : void" style="text;strokeColor=none;fillColor=none;align=left;verticalAlign=middle;spacingLeft=4;spacingRight=4;overflow=hidden;points=[[0,0.5],[1,0.5]];portConstraint=eastwest;rotatable=0;whiteSpace=wrap;html=1;labelBackgroundColor=none;rounded=0;" parent="rXXwPsu-Z3OQYFj2nWae-31" vertex="1">
          <mxGeometry y="60" width="160" height="30" as="geometry" />
        </mxCell>
        <mxCell id="rXXwPsu-Z3OQYFj2nWae-34" value="+ afficherInfoJoueur(plr : Joueur) : void" style="text;strokeColor=none;fillColor=none;align=left;verticalAlign=middle;spacingLeft=4;spacingRight=4;overflow=hidden;points=[[0,0.5],[1,0.5]];portConstraint=eastwest;rotatable=0;whiteSpace=wrap;html=1;labelBackgroundColor=none;rounded=0;" parent="rXXwPsu-Z3OQYFj2nWae-31" vertex="1">
          <mxGeometry y="90" width="160" height="40" as="geometry" />
        </mxCell>
        <mxCell id="iWDvNx1NZRqrllPwlE0m-2" value="- startGame() : void" style="text;strokeColor=none;fillColor=none;align=left;verticalAlign=middle;spacingLeft=4;spacingRight=4;overflow=hidden;points=[[0,0.5],[1,0.5]];portConstraint=eastwest;rotatable=0;whiteSpace=wrap;html=1;labelBackgroundColor=none;rounded=0;" parent="rXXwPsu-Z3OQYFj2nWae-31" vertex="1">
          <mxGeometry y="130" width="160" height="30" as="geometry" />
        </mxCell>
        <mxCell id="iWDvNx1NZRqrllPwlE0m-1" value="+ gameOver(plr: Joueur) : void" style="text;strokeColor=none;fillColor=none;align=left;verticalAlign=middle;spacingLeft=4;spacingRight=4;overflow=hidden;points=[[0,0.5],[1,0.5]];portConstraint=eastwest;rotatable=0;whiteSpace=wrap;html=1;labelBackgroundColor=none;rounded=0;" parent="rXXwPsu-Z3OQYFj2nWae-31" vertex="1">
          <mxGeometry y="160" width="160" height="30" as="geometry" />
        </mxCell>
        <mxCell id="rXXwPsu-Z3OQYFj2nWae-35" value="&lt;div&gt;Entite&lt;/div&gt;" style="swimlane;fontStyle=0;childLayout=stackLayout;horizontal=1;startSize=30;horizontalStack=0;resizeParent=1;resizeParentMax=0;resizeLast=0;collapsible=1;marginBottom=0;whiteSpace=wrap;html=1;labelBackgroundColor=none;rounded=0;" parent="1" vertex="1">
          <mxGeometry x="220" y="30" width="200" height="240" as="geometry" />
        </mxCell>
        <mxCell id="rXXwPsu-Z3OQYFj2nWae-36" value="+ isAt(co_x:int,co_Y:int): boolean" style="text;strokeColor=none;fillColor=none;align=left;verticalAlign=middle;spacingLeft=4;spacingRight=4;overflow=hidden;points=[[0,0.5],[1,0.5]];portConstraint=eastwest;rotatable=0;whiteSpace=wrap;html=1;labelBackgroundColor=none;rounded=0;" parent="rXXwPsu-Z3OQYFj2nWae-35" vertex="1">
          <mxGeometry y="30" width="200" height="30" as="geometry" />
        </mxCell>
        <mxCell id="rXXwPsu-Z3OQYFj2nWae-37" value="+setX(i:int)" style="text;strokeColor=none;fillColor=none;align=left;verticalAlign=middle;spacingLeft=4;spacingRight=4;overflow=hidden;points=[[0,0.5],[1,0.5]];portConstraint=eastwest;rotatable=0;whiteSpace=wrap;html=1;labelBackgroundColor=none;rounded=0;" parent="rXXwPsu-Z3OQYFj2nWae-35" vertex="1">
          <mxGeometry y="60" width="200" height="30" as="geometry" />
        </mxCell>
        <mxCell id="rXXwPsu-Z3OQYFj2nWae-38" value="+setY(i:int)" style="text;strokeColor=none;fillColor=none;align=left;verticalAlign=middle;spacingLeft=4;spacingRight=4;overflow=hidden;points=[[0,0.5],[1,0.5]];portConstraint=eastwest;rotatable=0;whiteSpace=wrap;html=1;labelBackgroundColor=none;rounded=0;" parent="rXXwPsu-Z3OQYFj2nWae-35" vertex="1">
          <mxGeometry y="90" width="200" height="30" as="geometry" />
        </mxCell>
        <mxCell id="iWDvNx1NZRqrllPwlE0m-24" value="+getX(): int" style="text;whiteSpace=wrap;labelBackgroundColor=none;rounded=0;" parent="rXXwPsu-Z3OQYFj2nWae-35" vertex="1">
          <mxGeometry y="120" width="200" height="40" as="geometry" />
        </mxCell>
        <mxCell id="iWDvNx1NZRqrllPwlE0m-25" value="+getY(): int" style="text;whiteSpace=wrap;labelBackgroundColor=none;rounded=0;" parent="rXXwPsu-Z3OQYFj2nWae-35" vertex="1">
          <mxGeometry y="160" width="200" height="40" as="geometry" />
        </mxCell>
        <mxCell id="iWDvNx1NZRqrllPwlE0m-26" value="+getSkin(): String" style="text;whiteSpace=wrap;labelBackgroundColor=none;rounded=0;" parent="rXXwPsu-Z3OQYFj2nWae-35" vertex="1">
          <mxGeometry y="200" width="200" height="40" as="geometry" />
        </mxCell>
        <mxCell id="rXXwPsu-Z3OQYFj2nWae-39" value="&lt;div&gt;Joueur&lt;/div&gt;&lt;div&gt;(Singleton)&lt;/div&gt;" style="swimlane;fontStyle=0;childLayout=stackLayout;horizontal=1;startSize=40;horizontalStack=0;resizeParent=1;resizeParentMax=0;resizeLast=0;collapsible=1;marginBottom=0;whiteSpace=wrap;html=1;labelBackgroundColor=none;rounded=0;" parent="1" vertex="1">
          <mxGeometry x="380" y="420" width="160" height="300" as="geometry" />
        </mxCell>
        <mxCell id="rXXwPsu-Z3OQYFj2nWae-40" value="+ getInstance() : Joueur" style="text;strokeColor=none;fillColor=none;align=left;verticalAlign=middle;spacingLeft=4;spacingRight=4;overflow=hidden;points=[[0,0.5],[1,0.5]];portConstraint=eastwest;rotatable=0;whiteSpace=wrap;html=1;labelBackgroundColor=none;rounded=0;" parent="rXXwPsu-Z3OQYFj2nWae-39" vertex="1">
          <mxGeometry y="40" width="160" height="30" as="geometry" />
        </mxCell>
        <mxCell id="Y9PG_MMOgxARMKUrZ-6f-1" value="+ destroy() : Joueur" style="text;strokeColor=none;fillColor=none;align=left;verticalAlign=middle;spacingLeft=4;spacingRight=4;overflow=hidden;points=[[0,0.5],[1,0.5]];portConstraint=eastwest;rotatable=0;whiteSpace=wrap;html=1;labelBackgroundColor=none;rounded=0;" vertex="1" parent="rXXwPsu-Z3OQYFj2nWae-39">
          <mxGeometry y="70" width="160" height="30" as="geometry" />
        </mxCell>
        <mxCell id="rXXwPsu-Z3OQYFj2nWae-41" value="+ takeDamage(damage: int) : boolean" style="text;strokeColor=none;fillColor=none;align=left;verticalAlign=middle;spacingLeft=4;spacingRight=4;overflow=hidden;points=[[0,0.5],[1,0.5]];portConstraint=eastwest;rotatable=0;whiteSpace=wrap;html=1;labelBackgroundColor=none;rounded=0;" parent="rXXwPsu-Z3OQYFj2nWae-39" vertex="1">
          <mxGeometry y="100" width="160" height="40" as="geometry" />
        </mxCell>
        <mxCell id="rXXwPsu-Z3OQYFj2nWae-42" value="+ heal(vie: int) : void" style="text;strokeColor=none;fillColor=none;align=left;verticalAlign=middle;spacingLeft=4;spacingRight=4;overflow=hidden;points=[[0,0.5],[1,0.5]];portConstraint=eastwest;rotatable=0;whiteSpace=wrap;html=1;labelBackgroundColor=none;rounded=0;" parent="rXXwPsu-Z3OQYFj2nWae-39" vertex="1">
          <mxGeometry y="140" width="160" height="30" as="geometry" />
        </mxCell>
        <mxCell id="iWDvNx1NZRqrllPwlE0m-10" value="+ incrementScore(x: int) : void" style="text;strokeColor=none;fillColor=none;align=left;verticalAlign=middle;spacingLeft=4;spacingRight=4;overflow=hidden;points=[[0,0.5],[1,0.5]];portConstraint=eastwest;rotatable=0;whiteSpace=wrap;html=1;labelBackgroundColor=none;rounded=0;" parent="rXXwPsu-Z3OQYFj2nWae-39" vertex="1">
          <mxGeometry y="170" width="160" height="40" as="geometry" />
        </mxCell>
        <mxCell id="iWDvNx1NZRqrllPwlE0m-11" value="+ isAlive() : boolean" style="text;strokeColor=none;fillColor=none;align=left;verticalAlign=middle;spacingLeft=4;spacingRight=4;overflow=hidden;points=[[0,0.5],[1,0.5]];portConstraint=eastwest;rotatable=0;whiteSpace=wrap;html=1;labelBackgroundColor=none;rounded=0;" parent="rXXwPsu-Z3OQYFj2nWae-39" vertex="1">
          <mxGeometry y="210" width="160" height="30" as="geometry" />
        </mxCell>
        <mxCell id="iWDvNx1NZRqrllPwlE0m-12" value="+ getPv() : int" style="text;strokeColor=none;fillColor=none;align=left;verticalAlign=middle;spacingLeft=4;spacingRight=4;overflow=hidden;points=[[0,0.5],[1,0.5]];portConstraint=eastwest;rotatable=0;whiteSpace=wrap;html=1;labelBackgroundColor=none;rounded=0;" parent="rXXwPsu-Z3OQYFj2nWae-39" vertex="1">
          <mxGeometry y="240" width="160" height="30" as="geometry" />
        </mxCell>
        <mxCell id="iWDvNx1NZRqrllPwlE0m-13" value="+ getScore() : int" style="text;strokeColor=none;fillColor=none;align=left;verticalAlign=middle;spacingLeft=4;spacingRight=4;overflow=hidden;points=[[0,0.5],[1,0.5]];portConstraint=eastwest;rotatable=0;whiteSpace=wrap;html=1;labelBackgroundColor=none;rounded=0;" parent="rXXwPsu-Z3OQYFj2nWae-39" vertex="1">
          <mxGeometry y="270" width="160" height="30" as="geometry" />
        </mxCell>
        <mxCell id="iWDvNx1NZRqrllPwlE0m-3" value="Porte" style="swimlane;fontStyle=0;childLayout=stackLayout;horizontal=1;startSize=30;horizontalStack=0;resizeParent=1;resizeParentMax=0;resizeLast=0;collapsible=1;marginBottom=0;whiteSpace=wrap;html=1;labelBackgroundColor=none;rounded=0;" parent="1" vertex="1">
          <mxGeometry x="320" y="880" width="150" height="150" as="geometry" />
        </mxCell>
        <mxCell id="iWDvNx1NZRqrllPwlE0m-4" value="+ Porte(type:TypePorte)" style="text;strokeColor=none;fillColor=none;align=left;verticalAlign=middle;spacingLeft=4;spacingRight=4;overflow=hidden;points=[[0,0.5],[1,0.5]];portConstraint=eastwest;rotatable=0;whiteSpace=wrap;html=1;labelBackgroundColor=none;rounded=0;" parent="iWDvNx1NZRqrllPwlE0m-3" vertex="1">
          <mxGeometry y="30" width="150" height="40" as="geometry" />
        </mxCell>
        <mxCell id="iWDvNx1NZRqrllPwlE0m-5" value="+ getType() : TypePorte&amp;nbsp;" style="text;strokeColor=none;fillColor=none;align=left;verticalAlign=middle;spacingLeft=4;spacingRight=4;overflow=hidden;points=[[0,0.5],[1,0.5]];portConstraint=eastwest;rotatable=0;whiteSpace=wrap;html=1;labelBackgroundColor=none;rounded=0;" parent="iWDvNx1NZRqrllPwlE0m-3" vertex="1">
          <mxGeometry y="70" width="150" height="40" as="geometry" />
        </mxCell>
        <mxCell id="iWDvNx1NZRqrllPwlE0m-8" value="+ touch(joueur: Joueur) : boolean" style="text;strokeColor=none;fillColor=none;align=left;verticalAlign=middle;spacingLeft=4;spacingRight=4;overflow=hidden;points=[[0,0.5],[1,0.5]];portConstraint=eastwest;rotatable=0;whiteSpace=wrap;html=1;labelBackgroundColor=none;rounded=0;" parent="iWDvNx1NZRqrllPwlE0m-3" vertex="1">
          <mxGeometry y="110" width="150" height="40" as="geometry" />
        </mxCell>
        <mxCell id="2xGyglIuAXv1hj_h5Us2-3" value="" style="endArrow=block;html=1;rounded=0;entryX=0.476;entryY=1.119;entryDx=0;entryDy=0;entryPerimeter=0;endFill=0;exitX=0.5;exitY=0;exitDx=0;exitDy=0;strokeWidth=2;labelBackgroundColor=none;fontColor=default;" parent="1" source="rXXwPsu-Z3OQYFj2nWae-11" target="78W6d95duRkhlmA3JdRr-10" edge="1">
          <mxGeometry width="50" height="50" relative="1" as="geometry">
            <mxPoint x="880" y="870" as="sourcePoint" />
            <mxPoint x="200" y="590" as="targetPoint" />
            <Array as="points">
              <mxPoint x="880" y="800" />
              <mxPoint x="160" y="800" />
              <mxPoint x="160" y="760" />
            </Array>
          </mxGeometry>
        </mxCell>
        <mxCell id="2xGyglIuAXv1hj_h5Us2-6" value="" style="endArrow=diamondThin;html=1;rounded=0;exitX=0.005;exitY=0.713;exitDx=0;exitDy=0;endFill=1;exitPerimeter=0;strokeWidth=2;labelBackgroundColor=none;fontColor=default;" parent="1" source="rXXwPsu-Z3OQYFj2nWae-10" edge="1">
          <mxGeometry width="50" height="50" relative="1" as="geometry">
            <mxPoint x="430" y="880" as="sourcePoint" />
            <mxPoint x="60" y="500" as="targetPoint" />
            <Array as="points">
              <mxPoint x="20" y="991" />
              <mxPoint x="20" y="500" />
            </Array>
          </mxGeometry>
        </mxCell>
        <mxCell id="2xGyglIuAXv1hj_h5Us2-7" value="0..*" style="text;strokeColor=none;fillColor=none;align=left;verticalAlign=middle;spacingLeft=4;spacingRight=4;overflow=hidden;points=[[0,0.5],[1,0.5]];portConstraint=eastwest;rotatable=0;whiteSpace=wrap;html=1;labelBackgroundColor=none;rounded=0;" parent="1" vertex="1">
          <mxGeometry x="20" y="990" width="30" height="30" as="geometry" />
        </mxCell>
        <mxCell id="2xGyglIuAXv1hj_h5Us2-8" value="" style="endArrow=none;html=1;rounded=0;exitX=0.5;exitY=0;exitDx=0;exitDy=0;strokeWidth=2;labelBackgroundColor=none;fontColor=default;" parent="1" source="iWDvNx1NZRqrllPwlE0m-3" edge="1">
          <mxGeometry width="50" height="50" relative="1" as="geometry">
            <mxPoint x="430" y="700" as="sourcePoint" />
            <mxPoint x="395" y="800" as="targetPoint" />
          </mxGeometry>
        </mxCell>
        <mxCell id="2xGyglIuAXv1hj_h5Us2-9" value="" style="endArrow=none;html=1;rounded=0;exitX=0.44;exitY=0;exitDx=0;exitDy=0;exitPerimeter=0;strokeWidth=2;labelBackgroundColor=none;fontColor=default;" parent="1" source="rXXwPsu-Z3OQYFj2nWae-7" edge="1">
          <mxGeometry width="50" height="50" relative="1" as="geometry">
            <mxPoint x="400" y="890" as="sourcePoint" />
            <mxPoint x="160" y="800" as="targetPoint" />
          </mxGeometry>
        </mxCell>
        <mxCell id="2xGyglIuAXv1hj_h5Us2-11" value="" style="endArrow=none;html=1;rounded=0;exitX=0.5;exitY=0;exitDx=0;exitDy=0;strokeWidth=2;labelBackgroundColor=none;fontColor=default;" parent="1" edge="1">
          <mxGeometry width="50" height="50" relative="1" as="geometry">
            <mxPoint x="559.5699999999999" y="880" as="sourcePoint" />
            <mxPoint x="559.5699999999999" y="800" as="targetPoint" />
          </mxGeometry>
        </mxCell>
        <mxCell id="2xGyglIuAXv1hj_h5Us2-12" value="" style="endArrow=none;html=1;rounded=0;exitX=0.5;exitY=0;exitDx=0;exitDy=0;strokeWidth=2;labelBackgroundColor=none;fontColor=default;" parent="1" edge="1">
          <mxGeometry width="50" height="50" relative="1" as="geometry">
            <mxPoint x="719.5699999999999" y="880" as="sourcePoint" />
            <mxPoint x="719.5699999999999" y="800" as="targetPoint" />
          </mxGeometry>
        </mxCell>
        <mxCell id="2xGyglIuAXv1hj_h5Us2-13" value="" style="endArrow=block;html=1;rounded=0;entryX=0.5;entryY=1;entryDx=0;entryDy=0;endFill=0;exitX=0.5;exitY=0;exitDx=0;exitDy=0;strokeWidth=2;labelBackgroundColor=none;fontColor=default;" parent="1" source="rXXwPsu-Z3OQYFj2nWae-3" target="iWDvNx1NZRqrllPwlE0m-26" edge="1">
          <mxGeometry width="50" height="50" relative="1" as="geometry">
            <mxPoint x="890" y="890" as="sourcePoint" />
            <mxPoint x="170" y="574" as="targetPoint" />
            <Array as="points">
              <mxPoint x="165" y="360" />
              <mxPoint x="320" y="360" />
            </Array>
          </mxGeometry>
        </mxCell>
        <mxCell id="2xGyglIuAXv1hj_h5Us2-14" value="" style="endArrow=none;html=1;rounded=0;exitX=0.5;exitY=0;exitDx=0;exitDy=0;strokeWidth=2;labelBackgroundColor=none;fontColor=default;" parent="1" edge="1">
          <mxGeometry width="50" height="50" relative="1" as="geometry">
            <mxPoint x="460" y="420" as="sourcePoint" />
            <mxPoint x="320" y="360" as="targetPoint" />
            <Array as="points">
              <mxPoint x="460" y="360" />
            </Array>
          </mxGeometry>
        </mxCell>
        <mxCell id="2xGyglIuAXv1hj_h5Us2-15" value="" style="endArrow=open;dashed=1;html=1;dashPattern=1 3;strokeWidth=2;rounded=0;entryX=0.5;entryY=0;entryDx=0;entryDy=0;endFill=0;exitX=0.5;exitY=1.112;exitDx=0;exitDy=0;exitPerimeter=0;labelBackgroundColor=none;fontColor=default;" parent="1" source="rXXwPsu-Z3OQYFj2nWae-2" target="rXXwPsu-Z3OQYFj2nWae-31" edge="1">
          <mxGeometry width="50" height="50" relative="1" as="geometry">
            <mxPoint x="710" y="497" as="sourcePoint" />
            <mxPoint x="706" y="497" as="targetPoint" />
          </mxGeometry>
        </mxCell>
        <mxCell id="2xGyglIuAXv1hj_h5Us2-19" value="" style="endArrow=open;dashed=1;html=1;dashPattern=1 3;strokeWidth=2;rounded=0;endFill=0;exitX=1.01;exitY=0.1;exitDx=0;exitDy=0;exitPerimeter=0;entryX=-0.011;entryY=0.159;entryDx=0;entryDy=0;entryPerimeter=0;labelBackgroundColor=none;fontColor=default;" parent="1" source="78W6d95duRkhlmA3JdRr-7" target="Y9PG_MMOgxARMKUrZ-6f-1" edge="1">
          <mxGeometry width="50" height="50" relative="1" as="geometry">
            <mxPoint x="369" y="520" as="sourcePoint" />
            <mxPoint x="378" y="494" as="targetPoint" />
          </mxGeometry>
        </mxCell>
        <mxCell id="2xGyglIuAXv1hj_h5Us2-17" value="" style="endArrow=open;html=1;strokeWidth=2;rounded=0;entryX=0.861;entryY=1.119;entryDx=0;entryDy=0;endFill=0;entryPerimeter=0;exitX=0.003;exitY=0.865;exitDx=0;exitDy=0;exitPerimeter=0;labelBackgroundColor=none;fontColor=default;" parent="1" source="iWDvNx1NZRqrllPwlE0m-19" target="78W6d95duRkhlmA3JdRr-10" edge="1">
          <mxGeometry width="50" height="50" relative="1" as="geometry">
            <mxPoint x="909" y="760" as="sourcePoint" />
            <mxPoint x="840.0000000000002" y="400.0899999999999" as="targetPoint" />
            <Array as="points">
              <mxPoint x="240" y="760" />
            </Array>
          </mxGeometry>
        </mxCell>
        <mxCell id="2xGyglIuAXv1hj_h5Us2-20" value="" style="endArrow=open;html=1;strokeWidth=2;rounded=0;entryX=0.869;entryY=0.003;entryDx=0;entryDy=0;endFill=0;entryPerimeter=0;exitX=0.148;exitY=0;exitDx=0;exitDy=0;exitPerimeter=0;labelBackgroundColor=none;fontColor=default;" parent="1" source="rXXwPsu-Z3OQYFj2nWae-27" target="rXXwPsu-Z3OQYFj2nWae-39" edge="1">
          <mxGeometry width="50" height="50" relative="1" as="geometry">
            <mxPoint x="919" y="400" as="sourcePoint" />
            <mxPoint x="251" y="574" as="targetPoint" />
            <Array as="points">
              <mxPoint x="960" y="400" />
              <mxPoint x="520" y="400" />
            </Array>
          </mxGeometry>
        </mxCell>
        <mxCell id="2xGyglIuAXv1hj_h5Us2-21" value="" style="endArrow=open;dashed=1;html=1;dashPattern=1 3;strokeWidth=2;rounded=0;entryX=1.015;entryY=0.343;entryDx=0;entryDy=0;endFill=0;entryPerimeter=0;labelBackgroundColor=none;fontColor=default;" parent="1" target="iWDvNx1NZRqrllPwlE0m-11" edge="1">
          <mxGeometry width="50" height="50" relative="1" as="geometry">
            <mxPoint x="640" y="640" as="sourcePoint" />
            <mxPoint x="390" y="504" as="targetPoint" />
          </mxGeometry>
        </mxCell>
        <mxCell id="2xGyglIuAXv1hj_h5Us2-23" value="1..*" style="text;strokeColor=none;fillColor=none;align=left;verticalAlign=middle;spacingLeft=4;spacingRight=4;overflow=hidden;points=[[0,0.5],[1,0.5]];portConstraint=eastwest;rotatable=0;whiteSpace=wrap;html=1;labelBackgroundColor=none;rounded=0;" parent="1" vertex="1">
          <mxGeometry x="881" y="730" width="30" height="30" as="geometry" />
        </mxCell>
        <mxCell id="2xGyglIuAXv1hj_h5Us2-24" value="1..1" style="text;strokeColor=none;fillColor=none;align=left;verticalAlign=middle;spacingLeft=4;spacingRight=4;overflow=hidden;points=[[0,0.5],[1,0.5]];portConstraint=eastwest;rotatable=0;whiteSpace=wrap;html=1;labelBackgroundColor=none;rounded=0;" parent="1" vertex="1">
          <mxGeometry x="930" y="405" width="30" height="30" as="geometry" />
        </mxCell>
        <mxCell id="2xGyglIuAXv1hj_h5Us2-25" value="&lt;div&gt;Scanner&lt;/div&gt;" style="swimlane;fontStyle=0;childLayout=stackLayout;horizontal=1;startSize=30;horizontalStack=0;resizeParent=1;resizeParentMax=0;resizeLast=0;collapsible=1;marginBottom=0;whiteSpace=wrap;html=1;labelBackgroundColor=none;rounded=0;" parent="1" vertex="1">
          <mxGeometry x="820" y="547.5" width="70" height="25" as="geometry" />
        </mxCell>
        <mxCell id="2xGyglIuAXv1hj_h5Us2-27" style="edgeStyle=orthogonalEdgeStyle;rounded=0;orthogonalLoop=1;jettySize=auto;html=1;entryX=0.5;entryY=1;entryDx=0;entryDy=0;endArrow=open;endFill=0;strokeWidth=2;labelBackgroundColor=none;fontColor=default;" parent="1" source="rXXwPsu-Z3OQYFj2nWae-34" target="2xGyglIuAXv1hj_h5Us2-25" edge="1">
          <mxGeometry relative="1" as="geometry" />
        </mxCell>
        <mxCell id="2xGyglIuAXv1hj_h5Us2-28" value="1..1" style="text;strokeColor=none;fillColor=none;align=left;verticalAlign=middle;spacingLeft=4;spacingRight=4;overflow=hidden;points=[[0,0.5],[1,0.5]];portConstraint=eastwest;rotatable=0;whiteSpace=wrap;html=1;labelBackgroundColor=none;rounded=0;" parent="1" vertex="1">
          <mxGeometry x="800" y="650" width="30" height="30" as="geometry" />
        </mxCell>
        <mxCell id="2xGyglIuAXv1hj_h5Us2-29" value="Random" style="swimlane;fontStyle=0;childLayout=stackLayout;horizontal=1;startSize=30;horizontalStack=0;resizeParent=1;resizeParentMax=0;resizeLast=0;collapsible=1;marginBottom=0;whiteSpace=wrap;html=1;labelBackgroundColor=none;rounded=0;" parent="1" vertex="1">
          <mxGeometry x="1250" y="20" width="70" height="25" as="geometry" />
        </mxCell>
        <mxCell id="2xGyglIuAXv1hj_h5Us2-30" style="edgeStyle=orthogonalEdgeStyle;rounded=0;orthogonalLoop=1;jettySize=auto;html=1;entryX=0.5;entryY=1;entryDx=0;entryDy=0;endArrow=open;endFill=0;strokeWidth=2;exitX=0.997;exitY=0.256;exitDx=0;exitDy=0;exitPerimeter=0;labelBackgroundColor=none;fontColor=default;" parent="1" source="rXXwPsu-Z3OQYFj2nWae-25" target="2xGyglIuAXv1hj_h5Us2-29" edge="1">
          <mxGeometry relative="1" as="geometry">
            <mxPoint x="1171" y="132.5" as="sourcePoint" />
          </mxGeometry>
        </mxCell>
        <mxCell id="2xGyglIuAXv1hj_h5Us2-31" value="1..1" style="text;strokeColor=none;fillColor=none;align=left;verticalAlign=middle;spacingLeft=4;spacingRight=4;overflow=hidden;points=[[0,0.5],[1,0.5]];portConstraint=eastwest;rotatable=0;whiteSpace=wrap;html=1;labelBackgroundColor=none;rounded=0;" parent="1" vertex="1">
          <mxGeometry x="1250" y="135" width="30" height="30" as="geometry" />
        </mxCell>
        <mxCell id="2xGyglIuAXv1hj_h5Us2-32" value="" style="endArrow=open;html=1;strokeWidth=2;rounded=0;endFill=0;exitX=0.541;exitY=0.994;exitDx=0;exitDy=0;exitPerimeter=0;labelBackgroundColor=none;fontColor=default;" parent="1" source="iWDvNx1NZRqrllPwlE0m-29" edge="1">
          <mxGeometry width="50" height="50" relative="1" as="geometry">
            <mxPoint x="1076" y="270" as="sourcePoint" />
            <mxPoint x="1076" y="435" as="targetPoint" />
            <Array as="points" />
          </mxGeometry>
        </mxCell>
        <mxCell id="2xGyglIuAXv1hj_h5Us2-33" value="" style="endArrow=open;dashed=1;html=1;dashPattern=1 3;strokeWidth=2;rounded=0;endFill=0;exitX=1.01;exitY=0.1;exitDx=0;exitDy=0;exitPerimeter=0;entryX=1;entryY=0.5;entryDx=0;entryDy=0;labelBackgroundColor=none;fontColor=default;" parent="1" target="iWDvNx1NZRqrllPwlE0m-28" edge="1">
          <mxGeometry width="50" height="50" relative="1" as="geometry">
            <mxPoint x="400" y="1030" as="sourcePoint" />
            <mxPoint x="1300" y="1080" as="targetPoint" />
            <Array as="points">
              <mxPoint x="400" y="1080" />
              <mxPoint x="1280" y="1080" />
              <mxPoint x="1280" y="200" />
            </Array>
          </mxGeometry>
        </mxCell>
        <mxCell id="2xGyglIuAXv1hj_h5Us2-34" value="" style="endArrow=open;dashed=1;html=1;dashPattern=1 3;strokeWidth=2;rounded=0;entryX=1;entryY=0.25;entryDx=0;entryDy=0;endFill=0;exitX=-0.01;exitY=1.107;exitDx=0;exitDy=0;exitPerimeter=0;labelBackgroundColor=none;fontColor=default;" parent="1" source="rXXwPsu-Z3OQYFj2nWae-25" target="iWDvNx1NZRqrllPwlE0m-24" edge="1">
          <mxGeometry width="50" height="50" relative="1" as="geometry">
            <mxPoint x="480" y="160" as="sourcePoint" />
            <mxPoint x="528" y="133.95" as="targetPoint" />
            <Array as="points" />
          </mxGeometry>
        </mxCell>
        <mxCell id="2xGyglIuAXv1hj_h5Us2-35" value="" style="endArrow=open;dashed=1;html=1;dashPattern=1 3;strokeWidth=2;rounded=0;entryX=0.82;entryY=1.074;entryDx=0;entryDy=0;endFill=0;exitX=0.314;exitY=0.013;exitDx=0;exitDy=0;exitPerimeter=0;entryPerimeter=0;labelBackgroundColor=none;fontColor=default;" parent="1" source="rXXwPsu-Z3OQYFj2nWae-27" target="iWDvNx1NZRqrllPwlE0m-26" edge="1">
          <mxGeometry width="50" height="50" relative="1" as="geometry">
            <mxPoint x="440" y="270" as="sourcePoint" />
            <mxPoint x="890" y="270.05" as="targetPoint" />
            <Array as="points">
              <mxPoint x="1015" y="320" />
              <mxPoint x="384" y="320" />
            </Array>
          </mxGeometry>
        </mxCell>
        <mxCell id="2xGyglIuAXv1hj_h5Us2-36" value="" style="endArrow=open;dashed=1;html=1;dashPattern=1 3;strokeWidth=2;rounded=0;entryX=0.3;entryY=0.002;entryDx=0;entryDy=0;endFill=0;exitX=0.25;exitY=0;exitDx=0;exitDy=0;entryPerimeter=0;labelBackgroundColor=none;fontColor=default;" parent="1" source="rXXwPsu-Z3OQYFj2nWae-23" target="rXXwPsu-Z3OQYFj2nWae-3" edge="1">
          <mxGeometry width="50" height="50" relative="1" as="geometry">
            <mxPoint x="876" y="168" as="sourcePoint" />
            <mxPoint x="430" y="170" as="targetPoint" />
            <Array as="points">
              <mxPoint x="965" y="10" />
              <mxPoint x="120" y="10" />
            </Array>
          </mxGeometry>
        </mxCell>
        <mxCell id="2xGyglIuAXv1hj_h5Us2-37" value="" style="endArrow=open;dashed=1;html=1;dashPattern=1 3;strokeWidth=2;rounded=0;entryX=0.107;entryY=-0.014;entryDx=0;entryDy=0;endFill=0;entryPerimeter=0;labelBackgroundColor=none;fontColor=default;" parent="1" target="rXXwPsu-Z3OQYFj2nWae-7" edge="1">
          <mxGeometry width="50" height="50" relative="1" as="geometry">
            <mxPoint x="120" y="10" as="sourcePoint" />
            <mxPoint x="133" y="430" as="targetPoint" />
            <Array as="points">
              <mxPoint x="40" y="10" />
              <mxPoint x="40" y="680" />
              <mxPoint x="80" y="680" />
            </Array>
          </mxGeometry>
        </mxCell>
      </root>
    </mxGraphModel>
  </diagram>
</mxfile>
